HIERARCHY
ROOT RootJoint
{
    OFFSET   0.000000   0.000000   0.000000
    CHANNELS 6 Xposition Yposition Zposition Xrotation Yrotation Zrotation
    JOINT pelvis_lowerback
    {
        OFFSET   0.000000   0.093605   0.000000
        CHANNELS 3 Xrotation Yrotation Zrotation
        JOINT lowerback_torso
        {
            OFFSET   0.000000   0.100000   0.000000
            CHANNELS 3 Xrotation Yrotation Zrotation
            JOINT torso_head
            {
                OFFSET   0.000000   0.282350   0.000000
                CHANNELS 3 Xrotation Yrotation Zrotation
                End Site
                {
                    OFFSET   0.000000   0.192650   0.000000
                }
            }
            JOINT rTorso_Clavicle
            {
                OFFSET  -0.001000   0.157500   0.000000
                CHANNELS 3 Xrotation Yrotation Zrotation
                JOINT rShoulder
                {
                    OFFSET  -0.117647   0.000000   0.000000
                    CHANNELS 3 Xrotation Yrotation Zrotation
                    JOINT rElbow
                    {
                        OFFSET  -0.245000   0.000000   0.000000
                        CHANNELS 3 Xrotation Yrotation Zrotation
                        JOINT rWrist
                        {
                            OFFSET  -0.240000   0.000000   0.000000
                            CHANNELS 3 Xrotation Yrotation Zrotation
                            End Site
                            {
                                OFFSET  -0.116353  -0.002500   0.000000
                            }
                        }
                    }
                }
            }
            JOINT lTorso_Clavicle
            {
                OFFSET   0.001000   0.157500   0.000000
                CHANNELS 3 Xrotation Yrotation Zrotation
                JOINT lShoulder
                {
                    OFFSET   0.117647   0.000000   0.000000
                    CHANNELS 3 Xrotation Yrotation Zrotation
                    JOINT lElbow
                    {
                        OFFSET   0.245000   0.000000   0.000000
                        CHANNELS 3 Xrotation Yrotation Zrotation
                        JOINT lWrist
                        {
                            OFFSET   0.240000   0.000000   0.000000
                            CHANNELS 3 Xrotation Yrotation Zrotation
                            End Site
                            {
                                OFFSET   0.116353  -0.002500   0.000000
                            }
                        }
                    }
                }
            }
        }
    }
    JOINT rHip
    {
        OFFSET  -0.100000  -0.051395   0.000000
        CHANNELS 3 Xrotation Yrotation Zrotation
        JOINT rKnee
        {
            OFFSET   0.000000  -0.410000   0.000000
            CHANNELS 3 Xrotation Yrotation Zrotation
            JOINT rAnkle
            {
                OFFSET   0.000000  -0.390000   0.000000
                CHANNELS 3 Xrotation Yrotation Zrotation
                JOINT rToeJoint
                {
                    OFFSET   0.000000  -0.050000   0.130000
                    CHANNELS 3 Xrotation Yrotation Zrotation
                    End Site
                    {
                        OFFSET  -0.010000   0.002000   0.060000
                    }
                }
            }
        }
    }
    JOINT lHip
    {
        OFFSET   0.100000  -0.051395   0.000000
        CHANNELS 3 Xrotation Yrotation Zrotation
        JOINT lKnee
        {
            OFFSET   0.000000  -0.410000   0.000000
            CHANNELS 3 Xrotation Yrotation Zrotation
            JOINT lAnkle
            {
                OFFSET   0.000000  -0.390000   0.000000
                CHANNELS 3 Xrotation Yrotation Zrotation
                JOINT lToeJoint
                {
                    OFFSET   0.000000  -0.050000   0.130000
                    CHANNELS 3 Xrotation Yrotation Zrotation
                    End Site
                    {
                        OFFSET   0.010000   0.002000   0.060000
                    }
                }
            }
        }
    }
}
MOTION
Frames: 11
Frame Time:   0.008333
 -2.185394   0.903355   4.148607  -0.665193  21.158524  -1.014382  11.286723  -1.930493  -0.609497  -3.118632  -1.876249   2.547995  -2.104197  -0.974433   0.799966  -4.096750 -13.214863   0.973015 -27.416459  -9.650756  12.094847   0.001732  20.426827  -0.002411   1.301729  -0.631387 -24.364460  -1.569141   8.129651  -5.052988 -20.811941  12.990914 -20.696781  -0.000463 -20.702575  -0.000610  -2.507182  -1.902625  26.252978 -20.206004  -1.415171 -11.845208  96.444485   0.026364  -0.012180   1.395844  -2.295301   6.760339  -1.651367  -0.000958   0.000751 -13.197913  -1.697133   0.722748  43.398710   0.005203   0.002736  -4.548735   1.883426  -0.629485 -38.072078  -0.012562   0.010282
 -2.186286   0.910587   4.151309  -0.384109  21.055749  -1.344313  11.133250  -1.891856  -0.354292  -3.149138  -1.836477   2.437006  -1.958428  -1.056028   0.720461  -3.878114 -13.232128   1.119621 -26.966888  -9.732826  12.373057   0.002622  20.805383  -0.004227   1.359865  -0.584094 -24.315662  -1.332359   8.300139  -5.045774 -20.594223  13.079329 -20.895784  -0.000084 -20.864261   0.000106  -2.466860  -1.839816  26.044517 -20.496122  -1.707770 -11.196845  93.098658   0.029583  -0.020741   1.801376  -2.318646   6.860371  -1.615132  -0.000916   0.000839 -12.721726  -1.697678   1.169398  41.667286   0.006662   0.001123  -1.960556   1.630857  -0.876235 -40.318396  -0.012792   0.009864
 -2.187325   0.918041   4.154002   0.033514  20.930376  -1.782618  10.887262  -1.844521  -0.040652  -3.217524  -1.790426   2.352248  -1.830664  -1.133727   0.631952  -3.664894 -13.261821   1.206537 -26.539879  -9.809203  12.626766   0.003053  21.161275  -0.005432   1.437593  -0.498861 -24.176116  -1.097902   8.494775  -4.960022 -20.386270  13.171112 -21.054867   0.000013 -21.020000   0.000609  -2.418502  -1.803276  25.826470 -20.834284  -2.024319 -10.430106  89.446493   0.034292  -0.029553   2.165111  -2.338037   6.954582  -1.571746  -0.000924   0.000987 -12.165681  -1.705181   1.714558  39.482780   0.009338  -0.000301   1.215533   1.324846  -1.310135 -44.968721  -0.021410   0.007893
 -2.188646   0.925929   4.156479   0.486770  20.961085  -2.162600  10.684568  -1.868321   0.210445  -3.290669  -1.798521   2.278987  -1.721204  -1.208756   0.549369  -3.462950 -13.311772   1.295263 -26.139051  -9.894183  12.859435   0.003281  21.489915  -0.006337   1.506852  -0.426218 -24.058287  -0.888700   8.658248  -4.831097 -20.206219  13.232436 -21.170188  -0.000021 -21.172766   0.001025  -2.358557  -1.797903  25.657115 -21.151919  -2.361799  -9.709256  85.836321   0.035937  -0.038057   2.497273  -2.353818   7.044054  -1.534267  -0.000873   0.001083 -11.754058  -1.588504   2.169005  37.386618   0.008702  -0.005048   4.152224   1.207062  -1.474051 -47.114625  -0.015664   0.001811
 -2.190178   0.934323   4.158754   0.940651  20.988209  -2.471665  10.528795  -1.883194   0.408244  -3.342780  -1.807096   2.196087  -1.618393  -1.278000   0.467164  -3.274285 -13.359074   1.381930 -25.764231  -9.973850  13.078389   0.003401  21.796143  -0.007031   1.570894  -0.362000 -23.955025  -0.697755   8.805004  -4.685696 -20.045326  13.277968 -21.259266  -0.000109 -21.319614   0.001380  -2.290351  -1.815675  25.527018 -21.486532  -2.647116  -9.027677  82.395537   0.037694  -0.044545   2.804733  -2.368959   7.126477  -1.504091  -0.000805   0.001105 -11.387640  -1.572174   2.530365  35.360389   0.009448  -0.006705   6.908106   0.997629  -1.538209 -46.691795  -0.012746   0.001327
 -2.191872   0.942873   4.160911   1.381379  21.015373  -2.775844  10.404636  -1.890971   0.624944  -3.364081  -1.810326   2.125424  -1.517956  -1.342481   0.387607  -3.098772 -13.399978   1.430383 -25.417292 -10.037513  13.268254   0.003377  22.084095  -0.007529   1.633388  -0.298836 -23.860774  -0.519820   8.943316  -4.521109 -19.898171  13.315267 -21.328646  -0.000259 -21.459808   0.001658  -2.218076  -1.846260  25.421812 -21.826665  -2.926002  -8.346772  79.180703   0.039588  -0.048371   3.090348  -2.381967   7.203683  -1.483388  -0.000719   0.001044 -11.042497  -1.577340   2.896312  33.311472   0.010560  -0.007654   9.917624   0.763285  -1.654931 -46.353527  -0.010236   0.000966
 -2.193673   0.951354   4.162994   1.799126  21.046566  -3.080122  10.308206  -1.893402   0.863604  -3.358301  -1.809021   2.075024  -1.420099  -1.402769   0.314681  -2.936036 -13.436225   1.436946 -25.098143 -10.084358  13.424265   0.003240  22.356406  -0.007844   1.698506  -0.227650 -23.788646  -0.353449   9.075921  -4.337262 -19.764298  13.345641 -21.376075  -0.000458 -21.593382   0.001853  -2.142741  -1.887306  25.344786 -22.162403  -3.203728  -7.680110  76.202544   0.041060  -0.049583   3.356644  -2.392733   7.276229  -1.470237  -0.000622   0.000932 -10.720243  -1.592295   3.273213  31.283084   0.011672  -0.008200  13.102531   0.511527  -1.802113 -46.082904  -0.008158   0.000723
 -2.195447   0.959417   4.165260   2.098557  21.252969  -3.353148  10.138673  -1.920115   1.095174  -3.148563  -1.809118   2.082350  -1.201403  -1.489501   0.193790  -2.583794 -13.521378   1.589903 -24.820547 -10.185681  13.496964   0.004031  22.834483  -0.010295   1.741189  -0.165800 -23.913650  -0.171051   9.184897  -4.254614 -19.701164  13.334676 -21.536096  -0.000696 -21.992984   0.002768  -2.033661  -1.979905  25.522636 -21.991004  -3.363912  -6.892806  72.544108   0.036657  -0.059881   3.421397  -2.316541   7.146924  -1.419108  -0.000495   0.001272 -10.831171  -1.456052   3.664177  30.173199   0.009842  -0.010791  16.190770   0.263913  -2.044311 -44.224130  -0.006121   0.007491
 -2.197073   0.966917   4.167666   2.328678  21.433804  -3.523200   9.964603  -1.917012   1.265742  -2.929527  -1.796007   2.066638  -0.975356  -1.567750   0.077565  -2.247885 -13.611163   1.755238 -24.554836 -10.289874  13.576656   0.004748  23.284166  -0.011754   1.811242  -0.051348 -24.042052  -0.001488   9.288981  -4.207862 -19.637561  13.324332 -21.711724  -0.000735 -22.375662   0.003208  -1.889861  -2.157935  25.688221 -21.656285  -3.447821  -6.156608  68.783594   0.034600  -0.069196   3.474272  -2.248490   7.021925  -1.375288  -0.000400   0.001468 -11.040760  -1.276494   3.962006  29.364352   0.008191  -0.011744  19.169095   0.037470  -2.272942 -41.887138  -0.003759   0.015344
 -2.198577   0.973768   4.170199   2.512140  21.559195  -3.619569   9.785182  -1.889465   1.399132  -2.730113  -1.762487   2.029587  -0.762161  -1.639833  -0.032941  -1.933918 -13.690213   1.914926 -24.305388 -10.386008  13.657864   0.005277  23.704495  -0.012364   1.884177   0.069919 -24.151116   0.161310   9.397511  -4.182510 -19.571941  13.325534 -21.887165  -0.000714 -22.729650   0.003272  -1.750728  -2.331010  25.828200 -21.288753  -3.508236  -5.470628  65.186744   0.036142  -0.074396   3.520530  -2.186374   6.903931  -1.334669  -0.000355   0.001567 -11.261685  -1.091494   4.195955  28.689776   0.006940  -0.011658  21.993719  -0.186304  -2.484558 -39.443922  -0.000921   0.020797
 -2.199983   0.979950   4.172853   2.656011  21.636643  -3.663454   9.602069  -1.845914   1.511538  -2.553867  -1.712760   1.980565  -0.564549  -1.707047  -0.136984  -1.641644 -13.757358   2.064575 -24.072719 -10.471784  13.736702   0.005624  24.098039  -0.012363   1.956897   0.192447 -24.246173   0.317725   9.509964  -4.173400 -19.505403  13.337333 -22.058398  -0.000682 -23.055952   0.003085  -1.624958  -2.480443  25.950787 -20.924737  -3.567850  -4.820459  61.818055   0.039892  -0.075616   3.563086  -2.128663   6.793631  -1.298637  -0.000344   0.001575 -11.465606  -0.912454   4.388083  28.097139   0.006002  -0.011012  24.652721  -0.410608  -2.677573 -37.050832   0.001877   0.023526
